<svg width="154" height="34" viewBox="0 0 154 34" fill="none" xmlns="http://www.w3.org/2000/svg">
<path d="M0.274414 27V3.19336H16.5605V7.26074H5.37109V13.3369H15.5312V17.3877H5.37109V22.9326H17.0752V27H0.274414ZM20.4121 8.30664H25.1768V17.6533C25.1768 19.5127 25.4977 20.9072 26.1396 21.8369C26.7816 22.7555 27.7998 23.2148 29.1943 23.2148C30.7106 23.2148 31.8727 22.7113 32.6807 21.7041C33.4997 20.6859 33.9092 19.3356 33.9092 17.6533V8.30664H38.6904V27H34.1084L33.9092 24.2441C32.7803 26.2585 30.6719 27.2656 27.584 27.2656C25.0273 27.2656 23.1956 26.4466 22.0889 24.8086C20.971 23.1595 20.4121 20.7744 20.4121 17.6533V8.30664ZM54.0801 27.2656C52.5195 27.2656 51.1527 27 49.9795 26.4688C48.8063 25.9375 47.9541 25.196 47.4229 24.2441V33.8066H42.6416V8.30664H47.2236L47.4229 11.0459C48.4411 9.03158 50.6602 8.02441 54.0801 8.02441C55.2865 8.02441 56.432 8.26237 57.5166 8.73828C58.6012 9.21419 59.5475 9.87272 60.3555 10.7139C61.1523 11.5661 61.7777 12.5954 62.2314 13.8018C62.6852 15.0081 62.9121 16.292 62.9121 17.6533C62.9121 19.0146 62.6852 20.2985 62.2314 21.5049C61.7777 22.7113 61.1523 23.735 60.3555 24.5762C59.5475 25.4173 58.6012 26.0758 57.5166 26.5518C56.432 27.0277 55.2865 27.2656 54.0801 27.2656ZM52.7852 12.0918C51.291 12.0918 50.0238 12.612 48.9834 13.6523C47.943 14.6927 47.4229 16.0264 47.4229 17.6533C47.4229 19.2692 47.943 20.5973 48.9834 21.6377C50.0127 22.6891 51.2799 23.2148 52.7852 23.2148C54.2793 23.2148 55.541 22.6891 56.5703 21.6377C57.5885 20.5863 58.0977 19.2581 58.0977 17.6533C58.0977 16.0485 57.583 14.7204 56.5537 13.6689C55.5244 12.6175 54.2682 12.0918 52.7852 12.0918ZM84.8262 27H80.0449V17.6533C80.0449 15.7939 79.6963 14.4049 78.999 13.4863C78.3018 12.5566 77.2061 12.0918 75.7119 12.0918C74.2288 12.0918 73.028 12.6009 72.1094 13.6191C71.1908 14.6374 70.7314 15.9821 70.7314 17.6533V27H65.9502V1.5H70.7314V11.0459C71.2738 10.083 72.1149 9.34147 73.2549 8.82129C74.3949 8.29004 75.7507 8.02441 77.3223 8.02441C79.9785 8.02441 81.8932 8.84896 83.0664 10.498C84.2396 12.1361 84.8262 14.5212 84.8262 17.6533V27ZM97.8916 27.2656C96.0322 27.2656 94.3389 26.8783 92.8115 26.1035C91.2952 25.3288 90.0778 24.2109 89.1592 22.75C88.2295 21.2669 87.7646 19.568 87.7646 17.6533C87.7646 15.7165 88.2295 14.012 89.1592 12.54C90.0889 11.057 91.3174 9.93359 92.8447 9.16992C94.3721 8.40625 96.0544 8.02441 97.8916 8.02441C99.7399 8.02441 101.422 8.41178 102.938 9.18652C104.466 9.96126 105.694 11.0791 106.624 12.54C107.554 14.012 108.019 15.7165 108.019 17.6533C108.019 19.568 107.554 21.2669 106.624 22.75C105.672 24.2441 104.438 25.3675 102.922 26.1201C101.395 26.8838 99.7178 27.2656 97.8916 27.2656ZM97.8916 23.2148C99.3747 23.2148 100.642 22.6891 101.693 21.6377C102.734 20.5973 103.254 19.2637 103.254 17.6367C103.254 16.0208 102.734 14.6927 101.693 13.6523C100.653 12.612 99.3857 12.0918 97.8916 12.0918C96.3864 12.0918 95.1191 12.612 94.0898 13.6523C93.0495 14.6927 92.5293 16.0208 92.5293 17.6367C92.5293 19.2637 93.0495 20.5973 94.0898 21.6377C95.1191 22.6891 96.3864 23.2148 97.8916 23.2148ZM111.073 27V8.30664H115.655L115.854 10.6475C116.618 9.65137 117.498 8.96517 118.494 8.58887C119.479 8.21257 120.802 8.02441 122.462 8.02441V12.0918C120.348 12.0918 118.721 12.5898 117.581 13.5859C116.43 14.6042 115.854 15.96 115.854 17.6533V27H111.073ZM127.924 5.84961C127.127 5.84961 126.452 5.57292 125.898 5.01953C125.345 4.46615 125.068 3.79102 125.068 2.99414C125.068 2.2194 125.345 1.55534 125.898 1.00195C126.452 0.448568 127.127 0.171875 127.924 0.171875C128.699 0.171875 129.363 0.448568 129.916 1.00195C130.469 1.55534 130.746 2.2194 130.746 2.99414C130.746 3.79102 130.469 4.46615 129.916 5.01953C129.363 5.57292 128.699 5.84961 127.924 5.84961ZM125.517 27V8.30664H130.298V27H125.517ZM141.969 8.02441C143.529 8.02441 144.891 8.29004 146.053 8.82129C147.226 9.35254 148.084 10.0941 148.626 11.0459L148.842 8.30664H153.407V27H148.842L148.626 24.2441C147.608 26.2585 145.389 27.2656 141.969 27.2656C140.762 27.2656 139.617 27.0277 138.532 26.5518C137.459 26.0758 136.518 25.4173 135.71 24.5762C134.913 23.735 134.288 22.7113 133.834 21.5049C133.38 20.2985 133.153 19.0146 133.153 17.6533C133.153 16.292 133.38 15.0081 133.834 13.8018C134.288 12.5954 134.913 11.5661 135.71 10.7139C136.518 9.87272 137.459 9.21419 138.532 8.73828C139.617 8.26237 140.762 8.02441 141.969 8.02441ZM143.264 23.2148C144.758 23.2148 146.031 22.6891 147.082 21.6377C148.111 20.5863 148.626 19.2526 148.626 17.6367C148.626 16.0208 148.111 14.6927 147.082 13.6523C146.042 12.612 144.769 12.0918 143.264 12.0918C141.758 12.0918 140.502 12.612 139.495 13.6523C138.466 14.6927 137.951 16.0264 137.951 17.6533C137.951 19.2581 138.466 20.5863 139.495 21.6377C140.524 22.6891 141.781 23.2148 143.264 23.2148Z" fill="#F2F2F2"/>
</svg>
