<svg width="48" height="48" viewBox="0 0 48 48" fill="none" xmlns="http://www.w3.org/2000/svg">
<path d="M23.214 4.68401C23.4323 4.49434 23.7118 4.38989 24.001 4.38989C24.2902 4.38989 24.5697 4.49434 24.788 4.68401L28.684 8.06801C28.8053 8.17351 28.9467 8.25355 29.0996 8.30336C29.2524 8.35318 29.4138 8.37176 29.574 8.35801L34.718 7.91001C35.006 7.88527 35.2932 7.96533 35.5269 8.13545C35.7606 8.30558 35.9251 8.55434 35.99 8.83601L37.154 13.864C37.1899 14.0211 37.2572 14.1694 37.3517 14.3C37.4461 14.4306 37.566 14.5408 37.704 14.624L42.128 17.284C42.3756 17.4331 42.561 17.6664 42.6503 17.9413C42.7396 18.2161 42.7267 18.5139 42.614 18.78L40.598 23.532C40.5353 23.6801 40.503 23.8392 40.503 24C40.503 24.1608 40.5353 24.3199 40.598 24.468L42.614 29.22C42.7272 29.4863 42.7404 29.7846 42.6511 30.0599C42.5618 30.3352 42.376 30.5689 42.128 30.718L37.704 33.378C37.5662 33.461 37.4465 33.5709 37.352 33.7011C37.2575 33.8314 37.1902 33.9792 37.154 34.136L35.99 39.164C35.9251 39.4457 35.7606 39.6944 35.5269 39.8646C35.2932 40.0347 35.006 40.1147 34.718 40.09L29.574 39.642C29.4139 39.628 29.2527 39.6462 29.0998 39.6957C28.9469 39.7452 28.8055 39.8249 28.684 39.93L24.786 43.316C24.5677 43.5057 24.2882 43.6101 23.999 43.6101C23.7098 43.6101 23.4303 43.5057 23.212 43.316L19.316 39.93C19.1945 39.8249 19.0531 39.7452 18.9002 39.6957C18.7473 39.6462 18.5861 39.628 18.426 39.642L13.282 40.09C12.994 40.1147 12.7068 40.0347 12.4731 39.8646C12.2394 39.6944 12.0749 39.4457 12.01 39.164L10.846 34.136C10.8101 33.9789 10.7428 33.8306 10.6483 33.7C10.5538 33.5695 10.434 33.4593 10.296 33.376L5.872 30.716C5.62444 30.5669 5.43899 30.3336 5.3497 30.0587C5.26042 29.7839 5.27331 29.4861 5.386 29.22L7.402 24.468C7.46471 24.3199 7.49702 24.1608 7.49702 24C7.49702 23.8392 7.46471 23.6801 7.402 23.532L5.386 18.78C5.27276 18.5137 5.25957 18.2154 5.34888 17.9401C5.43819 17.6649 5.62397 17.4311 5.872 17.282L10.296 14.622C10.4338 14.539 10.5535 14.4291 10.648 14.2989C10.7425 14.1687 10.8098 14.0208 10.846 13.864L12.01 8.83601C12.0749 8.55434 12.2394 8.30558 12.4731 8.13545C12.7068 7.96533 12.994 7.88527 13.282 7.91001L18.426 8.35801C18.5862 8.37176 18.7476 8.35318 18.9004 8.30336C19.0533 8.25355 19.1946 8.17351 19.316 8.06801L23.214 4.68401Z" stroke="#F2F2F2"/>
<path d="M18 26L22 30L32 20" stroke="#F2F2F2" stroke-linecap="round" stroke-linejoin="round"/>
</svg>
