<svg width="48" height="48" viewBox="0 0 48 48" fill="none" xmlns="http://www.w3.org/2000/svg">
<path d="M25.7453 25.3502L20.8991 33.7441M34.5343 7.82544C30.4296 10.3299 22.1277 16.8807 21.7575 23.0479M36.528 8.97655C36.5024 13.8361 35.1349 24.3904 29.8699 27.7316M3.60001 38.3794L8.66691 36.1503C11.763 34.7882 15.1744 34.3049 18.5269 34.7535L18.6821 34.7742C22.0863 35.2296 25.2953 36.6277 27.9469 38.8106L31.9999 42.1472M13.3324 18.1837L38.1582 32.5168C39.5623 33.3275 41.3578 32.8464 42.1685 31.4423C46.7623 23.4856 44.0361 13.3113 36.0794 8.71751L34.9827 8.08432C27.0259 3.4905 16.8517 6.21668 12.2579 14.1734C11.4472 15.5775 11.9283 17.373 13.3324 18.1837Z" stroke="#F2F2F2" stroke-linecap="round" stroke-linejoin="round"/>
</svg>
