<svg width="24" height="24" viewBox="0 0 24 24" fill="none" xmlns="http://www.w3.org/2000/svg">
<path d="M3.4 3.4L3.04475 3.0481L3.04896 3.04395L3.4 3.4ZM3.4 20.6L3.0481 20.9552L3.04395 20.951L3.4 20.6ZM20.6 20.6L20.9553 20.9519L20.951 20.9561L20.6 20.6ZM20.6 3.4L20.9519 3.04475L20.9561 3.04896L20.6 3.4ZM5.37333 8.08667L4.87344 8.09692C4.87068 7.96256 4.92212 7.83275 5.01617 7.73676C5.11022 7.64076 5.23895 7.58667 5.37333 7.58667V8.08667ZM12.9067 16.4067H13.4067C13.4067 16.6828 13.1828 16.9067 12.9067 16.9067V16.4067ZM12.9067 13.4333H12.4067C12.4067 13.2921 12.4664 13.1575 12.5711 13.0627C12.6758 12.9679 12.8157 12.9218 12.9562 12.9358L12.9067 13.4333ZM16.3533 16.4067V16.9067C16.136 16.9067 15.9436 16.7663 15.8772 16.5593L16.3533 16.4067ZM18.72 16.4067L19.2027 16.2762C19.2433 16.4264 19.2116 16.587 19.117 16.7106C19.0224 16.8342 18.8756 16.9067 18.72 16.9067V16.4067ZM15.3 12.2333L15.0772 12.681C14.9142 12.5998 14.8082 12.4365 14.8005 12.2546C14.7927 12.0727 14.8844 11.901 15.0399 11.8063L15.3 12.2333ZM17.1929 10.461L16.7839 10.1735V10.1735L17.1929 10.461ZM18.22 8.08V7.58C18.3702 7.58 18.5124 7.6475 18.6074 7.76385C18.7023 7.88019 18.7399 8.03305 18.7099 8.18019L18.22 8.08ZM16.0733 8.08L15.5921 7.94418C15.6529 7.72876 15.8495 7.58 16.0733 7.58V8.08ZM12.9067 11.3733L12.9597 11.8705C12.8186 11.8856 12.6778 11.84 12.5724 11.7452C12.4669 11.6503 12.4067 11.5152 12.4067 11.3733H12.9067ZM12.9067 8.08667V7.58667C13.1828 7.58667 13.4067 7.81053 13.4067 8.08667H12.9067ZM10.7533 8.08667H10.2533C10.2533 7.81053 10.4772 7.58667 10.7533 7.58667V8.08667ZM10.7533 13.8467H11.2533C11.2533 14.0006 11.1824 14.146 11.061 14.2408C10.9397 14.3355 10.7814 14.3691 10.6321 14.3317L10.7533 13.8467ZM7.66666 8.08667V7.58667C7.93906 7.58667 8.16133 7.80471 8.16657 8.07705L7.66666 8.08667ZM1.5 11.6C1.5 9.35073 1.49895 7.61455 1.67942 6.26617C1.86181 4.90342 2.23769 3.8629 3.04478 3.04813L3.75522 3.75187C3.16231 4.35043 2.83819 5.14658 2.67058 6.39883C2.50105 7.66545 2.5 9.3226 2.5 11.6H1.5ZM1.5 12.4V11.6H2.5V12.4H1.5ZM3.04395 20.951C2.23765 20.1332 1.86183 19.0917 1.67942 17.7288C1.49895 16.3805 1.5 14.646 1.5 12.4H2.5C2.5 14.674 2.50105 16.3295 2.67058 17.5962C2.83817 18.8483 3.16235 19.6468 3.75605 20.249L3.04395 20.951ZM11.6 22.5C9.35073 22.5 7.61455 22.5011 6.26617 22.3206C4.90342 22.1382 3.8629 21.7623 3.04813 20.9552L3.75187 20.2448C4.35043 20.8377 5.14658 21.1618 6.39883 21.3294C7.66545 21.4989 9.3226 21.5 11.6 21.5V22.5ZM12.4 22.5H11.6V21.5H12.4V22.5ZM20.951 20.9561C20.1332 21.7624 19.0917 22.1382 17.7288 22.3206C16.3805 22.5011 14.646 22.5 12.4 22.5V21.5C14.674 21.5 16.3295 21.4989 17.5962 21.3294C18.8483 21.1618 19.6468 20.8376 20.249 20.2439L20.951 20.9561ZM22.5 12.4C22.5 14.6493 22.5011 16.3855 22.3206 17.7338C22.1382 19.0966 21.7623 20.1371 20.9552 20.9519L20.2448 20.2481C20.8377 19.6496 21.1618 18.8534 21.3294 17.6012C21.4989 16.3345 21.5 14.6774 21.5 12.4H22.5ZM22.5 11.6V12.4H21.5V11.6H22.5ZM20.9561 3.04896C21.7624 3.86678 22.1382 4.90834 22.3206 6.27117C22.5011 7.61954 22.5 9.35404 22.5 11.6H21.5C21.5 9.32596 21.4989 7.67046 21.3294 6.40383C21.1618 5.15166 20.8376 4.35322 20.2439 3.75104L20.9561 3.04896ZM12.4 1.5C14.6493 1.5 16.3855 1.49895 17.7338 1.67942C19.0966 1.86181 20.1371 2.23769 20.9519 3.04477L20.2481 3.75523C19.6496 3.16231 18.8534 2.83819 17.6012 2.67058C16.3346 2.50105 14.6774 2.5 12.4 2.5V1.5ZM11.6 1.5H12.4V2.5H11.6V1.5ZM3.04896 3.04395C3.86678 2.23765 4.90834 1.86183 6.27117 1.67942C7.61954 1.49895 9.35404 1.5 11.6 1.5V2.5C9.32596 2.5 7.67046 2.50105 6.40383 2.67058C5.15166 2.83817 4.35322 3.16235 3.75104 3.75605L3.04896 3.04395ZM12.64 16.9067C10.2378 16.9067 8.30053 16.0798 6.95803 14.5232C5.6255 12.9782 4.92831 10.7719 4.87344 8.09692L5.87323 8.07641C5.92502 10.6014 6.58117 12.5551 7.71529 13.8701C8.83947 15.1735 10.4822 15.9067 12.64 15.9067V16.9067ZM12.6467 16.9067H12.64V15.9067H12.6467V16.9067ZM12.9067 16.9067H12.6467V15.9067H12.9067V16.9067ZM13.4067 13.4333V16.4067H12.4067V13.4333H13.4067ZM15.8772 16.5593C15.4193 15.1312 14.2956 14.0741 12.8571 13.9309L12.9562 12.9358C14.8644 13.1259 16.2741 14.5221 16.8295 16.254L15.8772 16.5593ZM18.72 16.9067H16.3533V15.9067H18.72V16.9067ZM17.8442 13.6364C18.4785 14.4104 18.9415 15.3101 19.2027 16.2762L18.2373 16.5372C18.013 15.7076 17.6154 14.935 17.0707 14.2703L17.8442 13.6364ZM15.5228 11.7857C16.4187 12.2316 17.2099 12.8624 17.8442 13.6364L17.0707 14.2703C16.526 13.6056 15.8466 13.0639 15.0772 12.681L15.5228 11.7857ZM17.6019 10.7486C17.06 11.5195 16.3649 12.1703 15.5601 12.6604L15.0399 11.8063C15.7273 11.3877 16.321 10.8318 16.7839 10.1735L17.6019 10.7486ZM18.7099 8.18019C18.5211 9.10338 18.1439 9.97773 17.6019 10.7486L16.7839 10.1735C17.2467 9.51507 17.5689 8.76831 17.7301 7.97982L18.7099 8.18019ZM16.0733 7.58H18.22V8.58H16.0733V7.58ZM12.8537 10.8762C13.3502 10.8232 13.9227 10.4996 14.445 9.94981C14.9607 9.40692 15.3818 8.68939 15.5921 7.94418L16.5545 8.21582C16.2982 9.12394 15.7926 9.98308 15.17 10.6385C14.554 11.287 13.7765 11.7834 12.9597 11.8705L12.8537 10.8762ZM13.4067 8.08667V11.3733H12.4067V8.08667H13.4067ZM10.7533 7.58667H12.9067V8.58667H10.7533V7.58667ZM10.2533 13.8467V8.08667H11.2533V13.8467H10.2533ZM8.16657 8.07705C8.23726 11.7526 9.83541 13.1018 10.8746 13.3616L10.6321 14.3317C9.00459 13.9249 7.24274 12.0474 7.16676 8.09628L8.16657 8.07705ZM5.37333 7.58667H7.66666V8.58667H5.37333V7.58667Z" fill="#F2F2F2"/>
</svg>
